<svg xmlns="http://www.w3.org/2000/svg" xmlns:xlink="http://www.w3.org/1999/xlink" data-v-2cb57da0="" version="1.0" class="xinfolab-logo" width="660" height="250" viewBox="85 90 170 68" color-interpolation-filters="sRGB" style="margin: auto; fill: white;">  <g data-v-2cb57da0="" transform="translate(81.27891314029694,101.99144172668457)"><g class="logo" transform="translate(0,0)"><g transform="translate(0, 0)"><g data-gra="path-name" transform="scale(1)"><path d="M3.67-22.14L1.03-22.14L1.03-22.05L8.96-11.47L0.40-0.09L0.40 0L3.00 0L10.26-9.90L17.52 0L20.12 0L20.12-0.09L11.56-11.47L19.49-22.05L19.49-22.14L16.85-22.14L10.26-13.08Z" transform="translate(-0.40328603435399557, 31.501120238984317)"/></g></g><g transform="translate(23, 0)"><g data-gra="path-name" transform="scale(1)"><path d="M5.29 0L5.29-31.37L2.91-31.37L2.91 0Z" transform="translate(-2.912621359223301, 31.501120238984317)"/></g></g><g transform="translate(29, 0)"><g data-gra="path-name" transform="scale(1)"><path d="M2.46-22.14L2.46 0L4.66 0L4.66-12.32C4.66-16.89 7.84-20.34 12.41-20.39C17.21-20.43 20.30-17.74 20.30-12.73L20.30 0L22.49 0L22.49-12.77C22.49-18.91 18.42-22.54 12.50-22.54C9.41-22.49 6.32-21.24 4.62-18.19L4.62-22.14Z" transform="translate(-2.464525765496639, 31.501120238984317)"/></g></g><g transform="translate(53, 0)"><g data-gra="path-name" transform="scale(1)"><path d="M6.90 0L6.90-20.03L14.20-20.03L14.20-21.96L6.90-21.96L6.90-23.93C6.90-27.78 8.51-29.48 11.29-29.48C12.64-29.48 13.49-29.08 14.70-28.36L15.77-29.98C14.52-30.92 13.04-31.50 11.38-31.50C6.50-31.50 4.75-28.32 4.75-23.93L4.75-21.96L0.22-21.96L0.22-20.03L4.75-20.03L4.75 0Z" transform="translate(-0.22404779686333084, 31.501120238984317)"/></g></g><g transform="translate(72, 0)"><g data-gra="path-name" transform="scale(1)"><path d="M12.68 0.31C18.91 0.31 23.93-3.99 23.93-11.02C23.93-18.06 18.91-22.54 12.68-22.54C6.45-22.54 1.43-18.06 1.43-11.02C1.43-3.99 6.45 0.31 12.68 0.31ZM12.68-1.84C7.66-1.84 3.58-5.29 3.58-11.02C3.58-16.76 7.66-20.48 12.68-20.48C17.70-20.48 21.78-16.76 21.78-11.02C21.78-5.29 17.70-1.84 12.68-1.84Z" transform="translate(-1.4339058999253176, 31.501120238984317)"/></g></g><g transform="translate(98, 0)"><g data-gra="path-name" transform="scale(1)"><path d="M2.87-31.37L2.87 0L22.94 0L22.94-2.29L5.29-2.29L5.29-31.37Z" transform="translate(-2.8678117998506343, 31.501120238984317)"/></g></g><g transform="translate(122, 4.272539073800665)"><svg class="ico" x="0" y="0" width="29.016213073048814" height="27.314518566364317" style="overflow: visible;"><svg xmlns="http://www.w3.org/2000/svg" viewBox="0.0020000000949949026 0.003000000026077032 99.31999969482422 93.49500274658203"><path d="M49.662.003L.002 93.498h99.32L49.661.003zm38.778 86.96H55.1l16.67-31.388 16.67 31.388zM68.064 48.6L49.662 83.258l-18.41-34.659 18.41-34.658 18.402 34.658zm-40.51 6.976l16.67 31.388H10.878l16.677-31.388z"/></svg></svg></g><g transform="translate(155, 0)"><g data-gra="path-name" transform="scale(1)"><path d="M13.71-20.39C18.69-20.39 22.76-17.30 22.76-11.07C22.76-4.93 18.69-1.79 13.71-1.79C8.51-1.79 4.66-5.60 4.66-11.11C4.66-16.62 8.60-20.39 13.71-20.39ZM2.46-31.37L2.46 0L4.62 0L4.62-4.88C6.45-1.52 10.08 0.36 13.85 0.36C20.03 0.36 24.91-3.72 24.91-11.07C24.91-18.37 19.99-22.49 13.80-22.49C9.99-22.49 6.41-20.88 4.62-17.30L4.62-31.37Z" transform="translate(-2.464525765496639, 31.501120238984317)"/></g></g></g> <g class="slogan" data-gra="path-slogan" fill-opacity="0.8" transform="translate(5,37.86000061035156)"><rect x="0" height="1" y="3.580000400543213" width="15.78936767578125"/> <rect height="1" y="3.580000400543213" width="15.78936767578125" x="151.6593780517578"/> <g transform="translate(18.78936767578125,0)"><g transform="scale(1)"><path d="M2.71-7.03L2.71 0L3.72 0L3.72-7.03L6.10-7.03L6.10-7.87L0.34-7.87L0.34-7.03ZM10.13 0.14C10.62 0.14 11.08 0.05 11.49-0.14C11.90-0.34 12.26-0.61 12.56-0.97C12.86-1.32 13.09-1.75 13.25-2.26C13.42-2.77 13.50-3.34 13.50-3.97C13.50-4.60 13.42-5.16 13.25-5.66C13.09-6.16 12.86-6.58 12.56-6.93C12.26-7.28 11.90-7.55 11.49-7.73C11.08-7.92 10.62-8.02 10.13-8.02C9.63-8.02 9.18-7.92 8.77-7.74C8.35-7.56 8.00-7.29 7.70-6.94C7.41-6.59 7.18-6.17 7.01-5.67C6.85-5.17 6.77-4.60 6.77-3.97C6.77-3.34 6.85-2.77 7.01-2.26C7.18-1.75 7.41-1.32 7.70-0.97C8.00-0.61 8.35-0.34 8.77-0.14C9.18 0.05 9.63 0.14 10.13 0.14ZM10.13-0.73C9.78-0.73 9.46-0.81 9.17-0.96C8.89-1.11 8.65-1.33 8.44-1.61C8.24-1.90 8.08-2.24 7.97-2.63C7.86-3.03 7.80-3.48 7.80-3.97C7.80-4.46 7.86-4.90 7.97-5.29C8.08-5.68 8.24-6.02 8.44-6.29C8.65-6.56 8.89-6.77 9.17-6.92C9.46-7.07 9.78-7.14 10.13-7.14C10.48-7.14 10.80-7.07 11.08-6.92C11.37-6.77 11.61-6.56 11.81-6.29C12.02-6.02 12.18-5.68 12.29-5.29C12.40-4.90 12.46-4.46 12.46-3.97C12.46-3.48 12.40-3.03 12.29-2.63C12.18-2.24 12.02-1.90 11.81-1.61C11.61-1.33 11.37-1.11 11.08-0.96C10.80-0.81 10.48-0.73 10.13-0.73ZM17.62-7.87L17.62 0L22.27 0L22.27-0.85L18.61-0.85L18.61-3.71L21.60-3.71L21.60-4.56L18.61-4.56L18.61-7.03L22.15-7.03L22.15-7.87ZM25.33-4.07L23.04 0L24.10 0L25.24-2.12C25.33-2.32 25.43-2.51 25.54-2.72C25.64-2.92 25.75-3.14 25.86-3.38L25.91-3.38C26.04-3.14 26.15-2.92 26.26-2.72C26.37-2.51 26.48-2.32 26.58-2.12L27.73 0L28.84 0L26.54-4.02L28.69-7.87L27.64-7.87L26.59-5.86C26.50-5.67 26.41-5.49 26.32-5.32C26.24-5.15 26.14-4.95 26.03-4.72L25.98-4.72C25.86-4.95 25.75-5.15 25.66-5.32C25.57-5.49 25.47-5.67 25.37-5.86L24.30-7.87L23.20-7.87ZM30.10-7.87L30.10 0L31.09 0L31.09-3.12L32.51-3.12C32.94-3.12 33.33-3.17 33.69-3.27C34.05-3.37 34.35-3.52 34.61-3.72C34.86-3.92 35.06-4.17 35.20-4.48C35.34-4.78 35.41-5.14 35.41-5.56C35.41-5.99 35.34-6.35 35.20-6.65C35.06-6.94 34.87-7.18 34.61-7.36C34.36-7.54 34.06-7.67 33.70-7.75C33.34-7.83 32.94-7.87 32.51-7.87ZM32.39-3.94L31.09-3.94L31.09-7.07L32.39-7.07C33.07-7.07 33.58-6.96 33.91-6.74C34.25-6.52 34.42-6.12 34.42-5.56C34.42-5.00 34.25-4.59 33.92-4.33C33.59-4.07 33.08-3.94 32.39-3.94ZM37.01-7.87L37.01 0L41.45 0L41.45-0.85L38.00-0.85L38.00-7.87ZM45.43 0.14C45.93 0.14 46.38 0.05 46.79-0.14C47.21-0.34 47.56-0.61 47.86-0.97C48.16-1.32 48.39-1.75 48.56-2.26C48.72-2.77 48.80-3.34 48.80-3.97C48.80-4.60 48.72-5.16 48.56-5.66C48.39-6.16 48.16-6.58 47.86-6.93C47.56-7.28 47.21-7.55 46.79-7.73C46.38-7.92 45.93-8.02 45.43-8.02C44.94-8.02 44.48-7.92 44.07-7.74C43.66-7.56 43.30-7.29 43.01-6.94C42.71-6.59 42.48-6.17 42.32-5.67C42.15-5.17 42.07-4.60 42.07-3.97C42.07-3.34 42.15-2.77 42.32-2.26C42.48-1.75 42.71-1.32 43.01-0.97C43.30-0.61 43.66-0.34 44.07-0.14C44.48 0.05 44.94 0.14 45.43 0.14ZM45.43-0.73C45.08-0.73 44.76-0.81 44.48-0.96C44.19-1.11 43.95-1.33 43.75-1.61C43.54-1.90 43.38-2.24 43.27-2.63C43.16-3.03 43.10-3.48 43.10-3.97C43.10-4.46 43.16-4.90 43.27-5.29C43.38-5.68 43.54-6.02 43.75-6.29C43.95-6.56 44.19-6.77 44.48-6.92C44.76-7.07 45.08-7.14 45.43-7.14C45.78-7.14 46.10-7.07 46.39-6.92C46.67-6.77 46.91-6.56 47.12-6.29C47.32-6.02 47.48-5.68 47.59-5.29C47.70-4.90 47.76-4.46 47.76-3.97C47.76-3.48 47.70-3.03 47.59-2.63C47.48-2.24 47.32-1.90 47.12-1.61C46.91-1.33 46.67-1.11 46.39-0.96C46.10-0.81 45.78-0.73 45.43-0.73ZM51.49-4.14L51.49-7.07L52.81-7.07C53.43-7.07 53.90-6.96 54.23-6.76C54.56-6.55 54.72-6.18 54.72-5.66C54.72-5.15 54.56-4.77 54.23-4.52C53.90-4.27 53.43-4.14 52.81-4.14ZM54.82 0L55.94 0L53.95-3.43C54.49-3.57 54.92-3.82 55.24-4.19C55.56-4.56 55.72-5.05 55.72-5.66C55.72-6.07 55.65-6.42 55.51-6.70C55.38-6.98 55.19-7.20 54.94-7.38C54.70-7.56 54.41-7.68 54.07-7.76C53.73-7.83 53.36-7.87 52.96-7.87L50.50-7.87L50.50 0L51.49 0L51.49-3.32L52.92-3.32ZM57.47-7.87L57.47 0L62.12 0L62.12-0.85L58.46-0.85L58.46-3.71L61.45-3.71L61.45-4.56L58.46-4.56L58.46-7.03L62.00-7.03L62.00-7.87ZM67.85-7.03L67.85 0L68.86 0L68.86-7.03L71.23-7.03L71.23-7.87L65.47-7.87L65.47-7.03ZM72.65-7.87L72.65 0L73.64 0L73.64-3.71L77.30-3.71L77.30 0L78.31 0L78.31-7.87L77.30-7.87L77.30-4.57L73.64-4.57L73.64-7.87ZM80.47-7.87L80.47 0L85.13 0L85.13-0.85L81.47-0.85L81.47-3.71L84.46-3.71L84.46-4.56L81.47-4.56L81.47-7.03L85.01-7.03L85.01-7.87ZM88.14-7.87L90.66 0L91.82 0L94.32-7.87L93.30-7.87L92.04-3.62C91.90-3.15 91.78-2.72 91.67-2.32C91.56-1.92 91.43-1.48 91.28-1.02L91.24-1.02C91.08-1.48 90.95-1.92 90.85-2.32C90.74-2.72 90.61-3.15 90.47-3.62L89.21-7.87ZM95.40-7.87L95.40 0L96.40 0L96.40-7.87ZM99.55-4.14L99.55-7.07L100.87-7.07C101.49-7.07 101.96-6.96 102.29-6.76C102.62-6.55 102.78-6.18 102.78-5.66C102.78-5.15 102.62-4.77 102.29-4.52C101.96-4.27 101.49-4.14 100.87-4.14ZM102.88 0L104.00 0L102.01-3.43C102.55-3.57 102.98-3.82 103.30-4.19C103.62-4.56 103.78-5.05 103.78-5.66C103.78-6.07 103.71-6.42 103.57-6.70C103.44-6.98 103.25-7.20 103.00-7.38C102.76-7.56 102.47-7.68 102.13-7.76C101.79-7.83 101.42-7.87 101.02-7.87L98.56-7.87L98.56 0L99.55 0L99.55-3.32L100.98-3.32ZM106.92-7.03L106.92 0L107.93 0L107.93-7.03L110.30-7.03L110.30-7.87L104.54-7.87L104.54-7.03ZM111.68-7.87L111.68-3.25C111.68-2.62 111.76-2.09 111.90-1.66C112.04-1.22 112.24-0.87 112.49-0.61C112.75-0.34 113.05-0.15 113.39-0.03C113.74 0.09 114.12 0.14 114.52 0.14C114.92 0.14 115.29 0.09 115.63-0.03C115.98-0.15 116.27-0.34 116.53-0.61C116.78-0.87 116.98-1.22 117.12-1.66C117.26-2.09 117.34-2.62 117.34-3.25L117.34-7.87L116.38-7.87L116.38-3.23C116.38-2.76 116.33-2.36 116.23-2.04C116.14-1.72 116.00-1.46 115.84-1.27C115.67-1.08 115.47-0.94 115.25-0.86C115.02-0.77 114.78-0.73 114.52-0.73C114.26-0.73 114.02-0.77 113.80-0.86C113.57-0.94 113.38-1.08 113.21-1.27C113.05-1.46 112.92-1.72 112.82-2.04C112.73-2.36 112.68-2.76 112.68-3.23L112.68-7.87ZM122.59-3.20L120.23-3.20L120.60-4.40C120.74-4.84 120.88-5.28 121.01-5.72C121.14-6.15 121.26-6.60 121.38-7.06L121.43-7.06C121.56-6.60 121.68-6.15 121.81-5.72C121.94-5.28 122.08-4.84 122.22-4.40ZM122.84-2.40L123.59 0L124.66 0L121.99-7.87L120.86-7.87L118.20 0L119.22 0L119.98-2.40ZM125.77-7.87L125.77 0L130.21 0L130.21-0.85L126.77-0.85L126.77-7.87Z" transform="translate(-0.336, 8.016)"/></g></g></g></g></svg>
